<svg width="18" height="23" viewBox="0 0 18 23" fill="none" xmlns="http://www.w3.org/2000/svg">
<path d="M12 11.2529H14C14 7.80203 11.76 5.0013 9 5.0013V7.50196C10.66 7.50196 12 9.17739 12 11.2529ZM16 11.2529H18C18 8.26847 17.0518 5.40624 15.364 3.29591C13.6761 1.18557 11.3869 0 9 0V2.50065C12.87 2.50065 16 6.41417 16 11.2529ZM17 15.6291C15.75 15.6291 14.55 15.379 13.43 14.9164C13.33 14.8789 13.22 14.8539 13.12 14.8539C12.86 14.8539 12.61 14.9789 12.41 15.2165L10.21 17.9672C7.37119 16.162 5.06378 13.277 3.62 9.72754L5.82 6.96432C5.95245 6.8072 6.04632 6.60612 6.0906 6.38466C6.13488 6.1632 6.12773 5.93055 6.07 5.71399C5.69065 4.27368 5.49821 2.76672 5.5 1.25033C5.5 0.562647 5.05 0 4.5 0H1C0.45 0 0 0.562647 0 1.25033C0 12.9909 7.61 22.5059 17 22.5059C17.55 22.5059 18 21.9432 18 21.2555V16.8794C18 16.1917 17.55 15.6291 17 15.6291ZM2.03 2.50065H3.53C3.6 3.60094 3.75 4.68872 3.98 5.72649L2.78 7.23939C2.38 5.72649 2.12 4.15108 2.03 2.50065ZM16 19.9677C14.68 19.8552 13.4 19.5301 12.2 19.0175L13.4 17.5171C14.25 17.8171 15.12 18.0047 16 18.0797V19.9677Z" fill="black"/>
</svg>
