<svg width="16" height="28" viewBox="0 0 16 28" fill="none" xmlns="http://www.w3.org/2000/svg">
<path d="M7.98185 14.455C4.21519 14.455 1.08452 11.327 1.08452 7.62566C1.08452 3.79633 4.21519 0.666992 7.98319 0.666992C11.8792 0.666992 14.8805 3.79499 14.8805 7.62566C14.8738 9.44306 14.1458 11.1834 12.8564 12.4643C11.5671 13.7451 9.82193 14.4616 8.00452 14.4563L7.98185 14.455ZM7.98185 4.68966C6.38719 4.68966 5.17385 6.02966 5.17385 7.62699C5.17385 9.22166 6.38719 10.435 7.98319 10.435C9.64319 10.435 10.7925 9.22166 10.7925 7.62699C10.7939 6.02833 9.64319 4.68966 7.98185 4.68966ZM10.7285 20.1377L14.6259 23.9043C15.3925 24.7323 15.3925 25.9457 14.6259 26.7123C13.7965 27.5403 12.5179 27.5403 11.8792 26.7123L7.98319 22.8817L4.21519 26.7123C3.83252 27.095 3.32052 27.2857 2.74452 27.2857C2.29785 27.2857 1.78719 27.0937 1.33919 26.7123C0.572522 25.9457 0.572522 24.7323 1.33919 23.903L5.29919 20.1363C3.8691 19.7128 2.49724 19.1131 1.21519 18.351C0.256521 17.8403 0.0658548 16.5643 0.576521 15.6057C1.21519 14.6483 2.36452 14.3937 3.38719 15.0323C4.77198 15.8774 6.3629 16.3245 7.98519 16.3245C9.60748 16.3245 11.1984 15.8774 12.5832 15.0323C13.6059 14.3937 14.8179 14.6483 15.3925 15.6057C15.9685 16.5643 15.7112 17.839 14.8165 18.351C13.6045 19.1177 12.1992 19.6923 10.7299 20.139L10.7285 20.1377Z" fill="black"/>
</svg>
