<svg width="26" height="26" viewBox="0 0 26 26" fill="none" xmlns="http://www.w3.org/2000/svg">
<path d="M16.991 0H9.00981C1.72656 0 0 1.72656 0 9.00981V16.991C0 24.2742 1.72656 26.0008 9.00981 26.0008H16.991C24.2742 26.0008 26.0008 24.2742 26.0008 16.991V9.00981C26.0008 1.72656 24.2572 0 16.991 0ZM20.9901 18.5477H19.1027C18.3877 18.5477 18.1675 17.9806 16.8813 16.6774C15.7641 15.5943 15.2693 15.4505 14.9939 15.4505C14.6047 15.4505 14.4942 15.5602 14.4942 16.094V17.7994C14.4942 18.2569 14.3504 18.5315 13.1397 18.5315C11.1377 18.5315 8.91637 17.3209 7.35881 15.0654C5.00987 11.7601 4.36719 9.28444 4.36719 8.77256C4.36719 8.49712 4.47687 8.23956 5.00581 8.23956H6.89731C7.37587 8.23956 7.55787 8.45975 7.74394 8.97162C8.67912 11.6716 10.2367 14.0367 10.8794 14.0367C11.1166 14.0367 11.2263 13.9271 11.2263 13.3217V10.5332C11.154 9.24706 10.4772 9.13656 10.4772 8.67994C10.4772 8.45975 10.6592 8.23956 10.9509 8.23956H13.9254C14.3276 8.23956 14.4755 8.45975 14.4755 8.93344V12.6953C14.4755 13.1016 14.6575 13.2454 14.7672 13.2454C15.0044 13.2454 15.2076 13.1016 15.6471 12.6612C17.0056 11.1377 17.979 8.78881 17.979 8.78881C18.1057 8.51337 18.3259 8.25581 18.8045 8.25581H20.696C21.2631 8.25581 21.3899 8.5475 21.2631 8.95375C21.0259 10.0539 18.7111 13.3209 18.7111 13.3209C18.512 13.6508 18.4356 13.7946 18.7111 14.1627C18.9142 14.4381 19.5747 15.0093 20.0143 15.5212C20.8227 16.4393 21.4443 17.2096 21.6101 17.7426C21.7961 18.2715 21.5215 18.5469 20.9877 18.5469L20.9901 18.5477Z" fill="black"/>
</svg>
